<?xml version="1.0" standalone="no"?>
<!DOCTYPE svg PUBLIC "-//W3C//DTD SVG 20010904//EN"
 "http://www.w3.org/TR/2001/REC-SVG-20010904/DTD/svg10.dtd">
<svg version="1.0" xmlns="http://www.w3.org/2000/svg"
 width="260.000000pt" height="260.000000pt" viewBox="0 0 260.000000 260.000000"
 preserveAspectRatio="xMidYMid meet">
<metadata>
Created by potrace 1.14, written by Peter Selinger 2001-2017
</metadata>
<g transform="translate(0.000000,260.000000) scale(0.100000,-0.100000)"
fill="#000000" stroke="none">
<path d="M1230 2472 c-19 -31 -42 -74 -52 -94 -13 -29 -21 -36 -35 -32 -14 4
-15 3 -4 -4 16 -11 5 -56 -11 -46 -7 4 -8 2 -4 -4 4 -6 -2 -32 -14 -56 -11
-25 -20 -50 -20 -55 0 -6 -4 -11 -8 -11 -5 0 -8 -10 -8 -22 1 -15 -4 -22 -13
-20 -11 2 -12 0 -3 -11 7 -8 8 -17 4 -21 -4 -4 -7 -13 -7 -19 0 -7 -5 -12 -12
-12 -6 0 -15 -4 -20 -8 -4 -5 -1 -7 7 -5 16 3 21 -26 9 -52 -4 -8 -8 -31 -10
-50 -2 -19 -8 -41 -13 -49 -6 -8 -11 -17 -11 -20 0 -3 -8 -6 -17 -5 -9 0 -15
-3 -13 -6 2 -4 -15 -13 -38 -20 -23 -6 -68 -25 -99 -40 -61 -30 -63 -31 -120
-11 -21 7 -43 9 -49 5 -8 -5 -10 1 -7 20 3 15 4 25 1 23 -2 -3 -19 11 -37 29
-19 19 -44 34 -56 34 -14 0 -19 4 -14 13 6 9 4 9 -7 1 -8 -6 -26 -14 -40 -17
-31 -8 -77 -48 -72 -64 6 -16 -26 -33 -62 -33 -8 0 -23 -9 -32 -19 -9 -11 -20
-18 -25 -15 -5 3 -8 2 -7 -3 4 -24 -4 -31 -35 -29 -19 1 -32 -2 -30 -6 5 -8
-12 -12 -31 -8 -5 1 -7 -1 -3 -5 4 -4 -2 -16 -12 -28 -15 -15 -17 -24 -9 -33
6 -7 8 -18 5 -23 -4 -5 -1 -13 5 -17 7 -4 9 -3 6 2 -3 6 -1 16 4 24 7 13 10
13 18 1 5 -8 11 -9 15 -3 4 7 17 7 36 2 20 -6 30 -5 30 2 0 6 7 5 17 -3 11
-10 14 -10 9 -1 -4 6 -2 12 3 12 6 0 11 -6 11 -12 0 -10 3 -10 9 0 7 11 13 9
29 -8 l21 -22 -5 23 c-4 17 -3 20 4 10 7 -9 12 -10 16 -2 4 6 12 9 17 5 6 -4
3 -15 -8 -27 -18 -22 -18 -22 3 -4 11 9 24 14 28 10 4 -4 4 1 0 12 -7 18 -6
18 9 6 10 -8 17 -9 17 -3 0 7 10 8 30 2 17 -5 30 -5 30 -1 0 3 9 7 20 7 11 0
20 -1 20 -3 0 -12 -64 -71 -73 -66 -6 4 -7 1 -2 -7 4 -7 3 -15 -1 -19 -21 -14
-74 -91 -112 -161 -68 -125 -109 -278 -115 -422 -2 -45 -7 -61 -26 -77 -21
-18 -21 -49 0 -36 5 4 9 1 9 -5 0 -6 4 -9 9 -6 9 6 31 -75 31 -110 0 -22 37
-131 66 -194 108 -234 332 -430 577 -505 115 -35 185 -44 312 -40 115 4 131 6
230 31 53 14 230 92 259 115 6 4 38 29 71 55 74 58 133 120 191 201 47 64 124
220 127 253 1 11 5 20 9 20 4 0 7 3 6 8 -1 4 2 27 7 52 5 25 8 49 7 53 -2 5 3
5 9 1 9 -5 10 -2 6 9 -4 11 -1 17 8 17 8 0 15 -6 15 -12 0 -7 5 -5 11 5 7 13
15 15 28 8 10 -6 23 -6 31 -1 16 10 30 4 30 -11 0 -6 -4 -8 -9 -5 -11 7 -8
-20 3 -31 4 -4 6 -3 5 2 -2 6 3 21 10 34 13 24 14 24 27 6 8 -10 14 -14 14 -8
0 13 69 23 77 10 3 -4 13 -1 23 8 14 13 16 23 10 46 -5 16 -6 29 -3 29 4 0 -9
14 -27 30 -19 17 -50 33 -71 36 -27 5 -39 12 -43 28 -8 31 -42 65 -74 72 -15
4 -30 12 -34 18 -5 8 -8 7 -8 -1 0 -7 -7 -13 -15 -13 -8 0 -15 6 -16 13 -1 17
-6 42 -19 96 -6 25 -11 49 -11 53 0 14 -76 174 -103 216 -14 23 -23 42 -19 42
5 0 3 4 -4 8 -14 9 -73 82 -73 91 0 3 30 6 67 6 51 0 70 -4 75 -15 6 -13 7
-13 7 0 1 11 14 15 55 15 35 0 52 -3 48 -10 -3 -5 2 -4 11 4 9 7 17 10 18 5 0
-5 4 0 8 11 9 22 -5 54 -29 70 -14 10 -20 11 -47 14 -7 0 -13 7 -13 14 0 23
-35 47 -66 47 -17 0 -42 -11 -59 -26 -16 -14 -24 -22 -16 -18 10 5 12 3 7 -5
-5 -7 -14 -10 -21 -7 -7 2 -23 -6 -35 -19 -13 -14 -26 -23 -29 -20 -4 2 -13 0
-20 -5 -9 -5 -40 12 -94 52 -86 63 -170 110 -251 138 -38 14 -50 23 -52 41 -6
46 -14 94 -20 124 -4 17 -7 40 -7 53 -1 12 -5 22 -9 22 -4 0 -8 8 -8 18 0 36
-82 232 -123 295 -10 15 -15 27 -12 27 4 0 -3 12 -14 26 -11 15 -18 31 -14 38
3 6 2 8 -2 3 -5 -4 -16 4 -25 17 l-16 25 -34 -57z"/>
<path d="M1158 2393 c7 -3 16 -2 19 1 4 3 -2 6 -13 5 -11 0 -14 -3 -6 -6z"/>
<path d="M990 1956 c0 -2 8 -10 18 -17 15 -13 16 -12 3 4 -13 16 -21 21 -21
13z"/>
<path d="M976 1902 c-3 -5 1 -9 9 -9 8 0 12 4 9 9 -3 4 -7 8 -9 8 -2 0 -6 -4
-9 -8z"/>
<path d="M166 1645 c-11 -8 -15 -15 -9 -15 6 0 16 7 23 15 16 19 11 19 -14 0z"/>
<path d="M496 1632 c-2 -4 4 -8 14 -8 10 0 16 4 14 8 -3 4 -9 8 -14 8 -5 0
-11 -4 -14 -8z"/>
<path d="M300 1620 c-9 -6 -10 -10 -3 -10 6 0 15 5 18 10 8 12 4 12 -15 0z"/>
<path d="M376 1593 c-6 -14 -5 -15 5 -6 7 7 10 15 7 18 -3 3 -9 -2 -12 -12z"/>
<path d="M2115 1580 c-3 -5 -1 -10 4 -10 6 0 11 5 11 10 0 6 -2 10 -4 10 -3 0
-8 -4 -11 -10z"/>
<path d="M2026 1542 c-3 -5 1 -9 9 -9 8 0 12 4 9 9 -3 4 -7 8 -9 8 -2 0 -6 -4
-9 -8z"/>
<path d="M2333 791 c0 -11 5 -18 9 -15 4 3 5 11 1 19 -7 21 -12 19 -10 -4z"/>
<path d="M2376 793 c-6 -14 -5 -15 5 -6 7 7 10 15 7 18 -3 3 -9 -2 -12 -12z"/>
<path d="M2210 779 c0 -5 5 -7 10 -4 6 3 10 8 10 11 0 2 -4 4 -10 4 -5 0 -10
-5 -10 -11z"/>
</g>
</svg>
