<svg xmlns="http://www.w3.org/2000/svg" viewBox="0 0 800 800"><rect width="100%" height="100%" fill="none"/><g fill="hsl(32, 0%, 100%)"><rect width="237" height="3" x="238.5" y="50.5" rx="1.5" transform="rotate(90 357 52)" opacity=".77"/><rect width="287" height="3" x="617.5" y="192.5" rx="1.5" transform="rotate(90 761 194)" opacity=".38"/><rect width="401" height="3" x="372.5" y="563.5" rx="1.5" transform="rotate(90 573 565)" opacity=".56"/><rect width="392" height="3" x="330" y="422.5" rx="1.5" transform="rotate(90 526 424)" opacity=".6"/><rect width="530" height="3" x="-141" y="521.5" rx="1.5" transform="rotate(90 124 523)" opacity=".62"/><rect width="155" height="3" x="-29.5" y="167.5" rx="1.5" transform="rotate(90 48 169)" opacity=".75"/><rect width="526" height="3" x="239" y="752.5" rx="1.5" transform="rotate(90 502 754)" opacity=".14"/><rect width="222" height="3" x="573" y="543.5" rx="1.5" transform="rotate(90 684 545)" opacity=".38"/><rect width="822" height="3" x="-151" y="734.5" rx="1.5" transform="rotate(90 260 736)" opacity=".88"/><rect width="254" height="3" x="73" y="102.5" rx="1.5" transform="rotate(90 200 104)" opacity=".46"/><rect width="493" height="3" x="134.5" y="141.5" rx="1.5" transform="rotate(90 381 143)" opacity=".4"/><rect width="482" height="3" x="-27" y="548.5" rx="1.5" transform="rotate(90 214 550)" opacity=".28"/><rect width="196" height="3" x="440" y="241.5" rx="1.5" transform="rotate(90 538 243)" opacity=".88"/><rect width="242" height="3" x="313" y="37.5" rx="1.5" transform="rotate(90 434 39)" opacity=".49"/><rect width="89" height="3" x="438.5" y="84.5" rx="1.5" transform="rotate(90 483 86)" opacity=".99"/><rect width="526" height="3" x="195" y="539.5" rx="1.5" transform="rotate(90 458 541)" opacity=".11"/><rect width="106" height="3" x="131" y="373.5" rx="1.5" transform="rotate(90 184 375)" opacity=".51"/><rect width="606" height="3" x="76" y="753.5" rx="1.5" transform="rotate(90 379 755)" opacity=".39"/><rect width="263" height="3" x="38.5" y="35.5" rx="1.5" transform="rotate(90 170 37)" opacity=".41"/><rect width="517" height="3" x="331.5" y="329.5" rx="1.5" transform="rotate(90 590 331)" opacity=".74"/><rect width="482" height="3" x="-105" y="600.5" rx="1.5" transform="rotate(90 136 602)" opacity=".44"/><rect width="87" height="3" x="221.5" y="146.5" rx="1.5" transform="rotate(90 265 148)" opacity=".95"/><rect width="466" height="3" x="303" y="501.5" rx="1.5" transform="rotate(90 536 503)" opacity=".31"/><rect width="510" height="3" x="461" y="304.5" rx="1.5" transform="rotate(90 716 306)" opacity=".24"/><rect width="547" height="3" x="-227.5" y="740.5" rx="1.5" transform="rotate(90 46 742)" opacity=".32"/><rect width="85" height="3" x="617.5" y="775.5" rx="1.5" transform="rotate(90 660 777)" opacity=".08"/><rect width="69" height="3" x="654.5" y="711.5" rx="1.5" transform="rotate(90 689 713)" opacity=".96"/><rect width="246" height="3" x="474" y="751.5" rx="1.5" transform="rotate(90 597 753)" opacity=".21"/><rect width="284" height="3" x="-91" y="456.5" rx="1.5" transform="rotate(90 51 458)" opacity=".22"/><rect width="53" height="3" x="700.5" y="588.5" rx="1.5" transform="rotate(90 727 590)" opacity=".52"/><rect width="313" height="3" x="612.5" y="515.5" rx="1.5" transform="rotate(90 769 517)" opacity=".72"/><rect width="591" height="3" x="-171.5" y="295.5" rx="1.5" transform="rotate(90 124 297)" opacity=".25"/><rect width="80" height="3" x="648" y="645.5" rx="1.5" transform="rotate(90 688 647)" opacity=".72"/><rect width="394" height="3" x="-154" y="623.5" rx="1.5" transform="rotate(90 43 625)" opacity=".35"/><rect width="408" height="3" x="292" y="143.5" rx="1.5" transform="rotate(90 496 145)" opacity=".2"/><rect width="353" height="3" x="-33.5" y="170.5" rx="1.5" transform="rotate(90 143 172)" opacity=".13"/><rect width="337" height="3" x="337.5" y="616.5" rx="1.5" transform="rotate(90 506 618)" opacity=".74"/><rect width="287" height="3" x="463.5" y="681.5" rx="1.5" transform="rotate(90 607 683)" opacity=".17"/><rect width="143" height="3" x="519.5" y="34.5" rx="1.5" transform="rotate(90 591 36)" opacity=".45"/><rect width="52" height="3" x="682" y="479.5" rx="1.5" transform="rotate(90 708 481)" opacity=".76"/><rect width="555" height="3" x="9.5" y="579.5" rx="1.5" transform="rotate(90 287 581)" opacity=".34"/><rect width="60" height="3" x="128" y="759.5" rx="1.5" transform="rotate(90 158 761)"/><rect width="299" height="3" x="621.5" y="633.5" rx="1.5" transform="rotate(90 771 635)" opacity=".46"/><rect width="490" height="3" x="-122" y="680.5" rx="1.5" transform="rotate(90 123 682)" opacity=".7"/><rect width="380" height="3" x="571" y="54.5" rx="1.5" transform="rotate(90 761 56)" opacity=".52"/><rect width="486" height="3" x="394" y="591.5" rx="1.5" transform="rotate(90 637 593)" opacity=".76"/><rect width="185" height="3" x="671.5" y="395.5" rx="1.5" transform="rotate(90 764 397)" opacity=".13"/><rect width="198" height="3" x="393" y="269.5" rx="1.5" transform="rotate(90 492 271)" opacity=".35"/><rect width="307" height="3" x="-109.5" y="530.5" rx="1.5" transform="rotate(90 44 532)" opacity=".54"/><rect width="315" height="3" x="263.5" y="279.5" rx="1.5" transform="rotate(90 421 281)" opacity=".9"/><rect width="299" height="3" x="206.5" y="466.5" rx="1.5" transform="rotate(90 356 468)" opacity=".42"/><rect width="155" height="3" x="-16.5" y="54.5" rx="1.5" transform="rotate(90 61 56)" opacity=".18"/><rect width="404" height="3" x="387" y="211.5" rx="1.5" transform="rotate(90 589 213)" opacity=".27"/><rect width="443" height="3" x="441.5" y="405.5" rx="1.5" transform="rotate(90 663 407)" opacity=".28"/><rect width="348" height="3" x="353" y="34.5" rx="1.5" transform="rotate(90 527 36)" opacity=".51"/><rect width="169" height="3" x="465.5" y="668.5" rx="1.5" transform="rotate(90 550 670)" opacity=".26"/><rect width="173" height="3" x="530.5" y="485.5" rx="1.5" transform="rotate(90 617 487)" opacity=".69"/><rect width="452" height="3" x="82" y="208.5" rx="1.5" transform="rotate(90 308 210)" opacity=".08"/><rect width="231" height="3" x="539.5" y="39.5" rx="1.5" transform="rotate(90 655 41)" opacity=".68"/><rect width="85" height="3" x="411.5" y="200.5" rx="1.5" transform="rotate(90 454 202)" opacity=".35"/><rect width="247" height="3" x="547.5" y="205.5" rx="1.5" transform="rotate(90 671 207)" opacity=".37"/><rect width="428" height="3" x="274" y="332.5" rx="1.5" transform="rotate(90 488 334)" opacity=".13"/><rect width="582" height="3" x="81" y="546.5" rx="1.5" transform="rotate(90 372 548)" opacity=".87"/><rect width="194" height="3" x="495" y="123.5" rx="1.5" transform="rotate(90 592 125)" opacity=".55"/><rect width="584" height="3" x="-14" y="44.5" rx="1.5" transform="rotate(90 278 46)" opacity=".92"/><rect width="168" height="3" x="-20" y="386.5" rx="1.5" transform="rotate(90 64 388)" opacity=".67"/><rect width="585" height="3" x="-18.5" y="326.5" rx="1.5" transform="rotate(90 274 328)" opacity=".8"/><rect width="391" height="3" x="15.5" y="646.5" rx="1.5" transform="rotate(90 211 648)" opacity=".71"/><rect width="98" height="3" x="249" y="416.5" rx="1.5" transform="rotate(90 298 418)" opacity=".41"/><rect width="126" height="3" x="633" y="96.5" rx="1.5" transform="rotate(90 696 98)" opacity=".5"/><rect width="231" height="3" x="85.5" y="463.5" rx="1.5" transform="rotate(90 201 465)" opacity=".33"/><rect width="576" height="3" x="75" y="346.5" rx="1.5" transform="rotate(90 363 348)" opacity=".13"/><rect width="248" height="3" x="234" y="256.5" rx="1.5" transform="rotate(90 358 258)" opacity=".61"/><rect width="54" height="3" x="419" y="662.5" rx="1.5" transform="rotate(90 446 664)" opacity=".93"/><rect width="153" height="3" x="-36.5" y="280.5" rx="1.5" transform="rotate(90 40 282)" opacity=".27"/><rect width="590" height="3" x="463" y="745.5" rx="1.5" transform="rotate(90 758 747)" opacity=".31"/><rect width="401" height="3" x="234.5" y="399.5" rx="1.5" transform="rotate(90 435 401)" opacity=".88"/><rect width="585" height="3" x="53.5" y="658.5" rx="1.5" transform="rotate(90 346 660)" opacity=".76"/><rect width="62" height="3" x="538" y="611.5" rx="1.5" transform="rotate(90 569 613)" opacity=".14"/><rect width="362" height="3" x="34" y="250.5" rx="1.5" transform="rotate(90 215 252)" opacity=".91"/></g></svg>